<svg width="34" height="44" viewBox="0 0 34 44" fill="none" xmlns="http://www.w3.org/2000/svg">
<path d="M12.8906 25.9531H5.15625V28.5312H12.8906V25.9531Z" fill="white"/>
<path d="M14.1797 13.0625C13.4577 13.0625 12.8906 13.6296 12.8906 14.3516C12.8906 15.0734 13.4577 15.6406 14.1797 15.6406C14.9016 15.6406 15.4688 15.0734 15.4688 14.3516C15.4688 13.6296 14.9016 13.0625 14.1797 13.0625Z" fill="white"/>
<path d="M23.2031 29.8203V38.2765C29.1586 36.6008 33.5156 31.1352 33.5156 24.6641C33.5156 16.8523 27.1477 10.4844 19.3359 10.4844H15.4688V5.15625H12.8906V2.57812H15.4688V0H2.57812V2.57812H5.15625V5.15625H2.57812V23.375H15.4688V18.2188H19.3359C22.8937 18.2188 25.7812 21.1063 25.7812 24.6641C25.7812 26.7781 24.7758 28.6343 23.2031 29.8203ZM14.1797 18.2188C12.0398 18.2188 10.3125 16.4912 10.3125 14.3516C10.3125 12.2117 12.0398 10.4844 14.1797 10.4844C16.3195 10.4844 18.0469 12.2117 18.0469 14.3516C18.0469 16.4912 16.3195 18.2188 14.1797 18.2188Z" fill="white"/>
<path d="M5.64609 38.8438H10.3125V36.2656H7.24453L5.95547 33.6875H10.3125V31.1094H0V33.6875H3.06797L5.64609 38.8438Z" fill="white"/>
<path d="M25.7812 41.4219H20.625V31.1094H12.8906C12.8906 34.8006 12.8906 37.5764 12.8906 41.4219H2.57812V44H25.7812V41.4219Z" fill="white"/>
</svg>
